<?xml version="1.0" encoding="iso-8859-1"?>
<svg version="1.1" id="watch" xmlns="http://www.w3.org/2000/svg" viewBox="0 0 512 512" width="512" height="512">
<line style="stroke: rgb(0, 0, 0); stroke-width: 5px; stroke-linecap: round;" x1="234.663" y1="247.746" x2="234.663" y2="201.746"></line>
<line style="stroke: rgb(0, 0, 0); stroke-width: 5px; stroke-linecap: round;" x1="260.987" y1="288.992" x2="260.993" y2="230.992" transform="matrix(-0.422618, 0.906308, -0.906308, -0.422618, 606.921875, 133.332001)"></line>
<path style="fill:#FC6E51;" d="M 349.274 148.071 C 284.215 78.845 308.353 0 308.353 0 C 209.227 28.321 168.931 79.141 168.931 165.137 C 159.033 158.345 133.833 147.915 133.833 147.915 C 77.627 277.283 187.369 357.97 267.557 359.61 C 268.602 359.626 269.664 359.641 270.726 359.641 C 338.75 359.641 455.769 261.389 349.274 148.071 Z"></path>
<path style="fill:#FFCE54;" d="M 341.936 208.243 C 283.123 188.009 262.841 110.258 262.841 110.258 C 213.458 151.132 201.202 193.349 220.671 250.18 C 212.864 249.258 206.916 249.211 206.916 249.211 L 341.936 208.243 Z"></path>
<path style="fill:#404040;" d="M 415.566 351.834 C 415.566 440.063 344.028 511.6 255.8 511.6 C 167.557 511.6 96.034 440.063 96.034 351.834 C 96.034 263.591 167.556 192.068 255.8 192.068 C 344.028 192.069 415.566 263.591 415.566 351.834 Z"></path>
<path style="fill: rgb(255, 255, 255); stroke-width: 5px; stroke: rgb(64, 64, 64);" d="M 415.566 330.523 C 415.566 418.767 344.028 490.289 255.8 490.289 C 167.557 490.289 96.034 418.768 96.034 330.523 C 96.034 242.295 167.556 170.757 255.8 170.757 C 344.028 170.757 415.566 242.295 415.566 330.523 Z"></path>
<g transform="matrix(1, 0, 0, 1, 0, 0.000343)">
	<path style="fill:#808080;" d="M255.8,181.421c-5.886,0-10.647,4.762-10.647,10.647s4.762,10.648,10.647,10.648
		c5.87,0,10.647-4.763,10.647-10.648S261.67,181.421,255.8,181.421z"></path>
	<path style="fill:#808080;" d="M255.8,458.345c-5.886,0-10.647,4.762-10.647,10.647c0,5.887,4.762,10.648,10.647,10.648
		c5.87,0,10.647-4.762,10.647-10.648C266.447,463.107,261.67,458.345,255.8,458.345z"></path>
	<path style="fill:#808080;" d="M181.234,201.39c-5.09,2.95-6.839,9.461-3.888,14.551c2.936,5.09,9.445,6.839,14.551,3.903
		c5.09-2.951,6.839-9.462,3.888-14.551C192.849,200.188,186.339,198.454,181.234,201.39z"></path>
	<path style="fill:#808080;" d="M319.703,441.218c-5.09,2.935-6.839,9.461-3.903,14.551c2.95,5.09,9.462,6.839,14.551,3.903
		c5.09-2.951,6.839-9.462,3.903-14.551C331.303,440.016,324.793,438.282,319.703,441.218z"></path>
	<path style="fill:#808080;" d="M141.202,252.069c-5.09-2.936-11.601-1.187-14.552,3.903c-2.935,5.09-1.187,11.601,3.903,14.551
		c5.09,2.936,11.616,1.187,14.552-3.903C148.04,261.529,146.308,255.02,141.202,252.069z"></path>
	<path style="fill:#808080;" d="M381.029,390.538c-5.089-2.95-11.6-1.202-14.551,3.903c-2.936,5.09-1.186,11.601,3.903,14.535
		c5.09,2.951,11.616,1.202,14.552-3.887C387.868,400,386.135,393.474,381.029,390.538z"></path>
	<path style="fill:#808080;" d="M117.33,319.875c-5.886,0-10.648,4.777-10.648,10.647c0,5.886,4.763,10.664,10.648,10.664
		s10.647-4.778,10.647-10.664C127.978,324.653,123.216,319.875,117.33,319.875z"></path>
	<path style="fill:#808080;" d="M394.254,319.875c-5.87,0-10.648,4.777-10.648,10.647c0,5.886,4.778,10.664,10.648,10.664
		c5.887,0,10.648-4.778,10.648-10.664C404.918,324.653,400.141,319.875,394.254,319.875z"></path>
	<path style="fill:#808080;" d="M130.554,390.538c-5.09,2.936-6.838,9.446-3.903,14.552c2.951,5.089,9.462,6.838,14.552,3.902
		c5.105-2.95,6.838-9.461,3.903-14.551C142.17,389.336,135.644,387.588,130.554,390.538z"></path>
	<path style="fill:#808080;" d="M381.029,270.523c5.105-2.95,6.839-9.461,3.904-14.551c-2.936-5.09-9.462-6.839-14.552-3.903
		c-5.089,2.951-6.839,9.461-3.903,14.551C369.43,271.709,375.941,273.458,381.029,270.523z"></path>
	<path style="fill:#808080;" d="M191.881,441.218c-5.09-2.936-11.6-1.202-14.535,3.903c-2.951,5.089-1.202,11.6,3.888,14.551
		c5.105,2.936,11.615,1.187,14.551-3.903C198.736,450.679,196.987,444.153,191.881,441.218z"></path>
	<path style="fill:#808080;" d="M319.703,219.844c5.09,2.936,11.6,1.187,14.551-3.903c2.936-5.09,1.187-11.601-3.903-14.551
		c-5.089-2.936-11.601-1.202-14.551,3.903C312.864,210.382,314.613,216.893,319.703,219.844z"></path>
</g>
<path style="fill:#434A54;" d="M 323.574 383.247 L 266.447 326.12 L 266.447 245.323 C 266.447 239.437 261.67 234.676 255.8 234.676 C 249.914 234.676 245.153 239.438 245.153 245.323 L 245.153 330.522 C 245.153 333.473 246.34 336.143 248.275 338.063 L 308.508 398.313 C 310.601 400.389 313.318 401.435 316.049 401.435 C 318.766 401.435 321.498 400.389 323.574 398.313 C 327.744 394.145 327.744 387.416 323.574 383.247 Z"></path>
<g transform="matrix(1, 0, 0, 1, 0, 0.000343)"></g>
<g transform="matrix(1, 0, 0, 1, 0, 0.000343)"></g>
<g transform="matrix(1, 0, 0, 1, 0, 0.000343)"></g>
<g transform="matrix(1, 0, 0, 1, 0, 0.000343)"></g>
<g transform="matrix(1, 0, 0, 1, 0, 0.000343)"></g>
<g transform="matrix(1, 0, 0, 1, 0, 0.000343)"></g>
<g transform="matrix(1, 0, 0, 1, 0, 0.000343)"></g>
<g transform="matrix(1, 0, 0, 1, 0, 0.000343)"></g>
<g transform="matrix(1, 0, 0, 1, 0, 0.000343)"></g>
<g transform="matrix(1, 0, 0, 1, 0, 0.000343)"></g>
<g transform="matrix(1, 0, 0, 1, 0, 0.000343)"></g>
<g transform="matrix(1, 0, 0, 1, 0, 0.000343)"></g>
<g transform="matrix(1, 0, 0, 1, 0, 0.000343)"></g>
<g transform="matrix(1, 0, 0, 1, 0, 0.000343)"></g>
<g transform="matrix(1, 0, 0, 1, 0, 0.000343)"></g>
</svg>