<svg  xmlns="http://www.w3.org/2000/svg" viewBox="0 0 256 256" width="256" height="256">
    <rect style="fill: rgb(216, 216, 216);" x="38" y="10" width="180" height="236" rx="10" ry="10"></rect>
    <rect style="fill: rgb(100, 100, 100);" x="63" width="20" height="15" rx="7" ry="7" y="55"></rect>
    <rect style="fill: rgb(100, 100, 100);" x="98" y="55" width="95" height="15" rx="7" ry="7"></rect>
    <rect style="fill: rgb(100, 100, 100);" x="63" y="85" width="20" height="15" rx="7" ry="7"></rect>
    <rect style="fill: rgb(100, 100, 100);" x="98" y="85" width="95" height="15" rx="7" ry="7"></rect>
    <rect style="fill: rgb(100, 100, 100);" x="63" y="115" width="20" height="15" rx="7" ry="7"></rect>
    <rect style="fill: rgb(100, 100, 100);" x="98" y="115" width="95" height="15" rx="7" ry="7"></rect>
    <rect style="fill: rgb(100, 100, 100);" x="63" y="145" width="20" height="15" rx="7" ry="7"></rect>
    <rect style="fill: rgb(100, 100, 100);" x="98" y="145" width="95" height="15" rx="7" ry="7"></rect>
    <rect style="fill: rgb(100, 100, 100);" x="63" y="175" width="20" height="15" rx="7" ry="7"></rect>
    <rect style="fill: rgb(100, 100, 100);" x="98" y="175" width="95" height="15" rx="7" ry="7"></rect>
    <rect style="fill: rgb(100, 100, 100);" x="63" width="20" height="15" rx="7" ry="7" y="205"></rect>
    <rect style="fill: rgb(100, 100, 100);" x="98" y="205" width="95" height="15" rx="7" ry="7"></rect>
</svg>